# xmcd CD database file
#
# Track frame offsets:
#	150
#	3164
#	15751
#	22453
#	27875
#	32881
#	42360
#	49282
#	55900
#	62360
#	78778
#	81925
#	96819
#	133828
#	161336
#	206132
#	220936
#	228967
#	243967
#	250824
#	271424
#	275339
#
# Disc length: 4315 seconds
#
# Revision: 1
# Processed by: cddbd v1.5.2PL0 Copyright (c) Steve Scherf et al.
# Submitted via: CDex 1.51
#
DISCID=2210d916
DTITLE=Paul Auster - Mein New York CD1
DYEAR=2001
DGENRE=Lesung
TTITLE0=Mein New York CD1
TTITLE1=Impressionen
TTITLE2=Impressionen
TTITLE3=Impressionen
TTITLE4=Impressionen
TTITLE5=Impressionen
TTITLE6=Impressionen
TTITLE7=Impressionen
TTITLE8=Impressionen
TTITLE9=Impressionen
TTITLE10=Impressionen
TTITLE11=Begegnungen
TTITLE12=Begegnungen
TTITLE13=Begegnungen
TTITLE14=Begegnungen
TTITLE15=Begegnungen
TTITLE16=Labyrinth
TTITLE17=Labyrinth
TTITLE18=Labyrinth
TTITLE19=Labyrinth
TTITLE20=Labyrinth
TTITLE21=Labyrinth
EXTD=YEAR: 2001
EXTT0=
EXTT1=
EXTT2=
EXTT3=
EXTT4=
EXTT5=
EXTT6=
EXTT7=
EXTT8=
EXTT9=
EXTT10=
EXTT11=
EXTT12=
EXTT13=
EXTT14=
EXTT15=
EXTT16=
EXTT17=
EXTT18=
EXTT19=
EXTT20=
EXTT21=
PLAYORDER=
